# xmcd
#
# Track frame offsets: 
#        225
#        12911
#        31434
#        40685
#        65416
#        74794
#        117995
#        144822
#
# Disc length: 2128 seconds
#
# Revision: 0
# Processed by: cddbd v1.4PL0 Copyright (c) Steve Scherf et al.
# Submitted via: ExactAudioCopy v0.95a2
#
DISCID=6d084d08
DTITLE=Bluespumpm - Edlau
DYEAR=1980
DGENRE=Blues
TTITLE0=Wuffi-Blues
TTITLE1=I Never Want To Live In Town Again
TTITLE2=Sis Strings And A Band
TTITLE3=Have You Ever Had That Dream
TTITLE4=Dieter Boogie
TTITLE5=Edlauer Boogie
TTITLE6=Why Is It So Hard
TTITLE7=Sunny Boy
EXTD=
EXTT0=
EXTT1=
EXTT2=
EXTT3=
EXTT4=
EXTT5=
EXTT6=
EXTT7=
PLAYORDER=
